<svg width="14" height="14" viewBox="0 0 18 18" fill="none" xmlns="http://www.w3.org/2000/svg">
<g clip-path="url(#clip0_1817_9131)">
<path d="M11.25 12H1.5V3.75C1.5 2.5095 2.5095 1.5 3.75 1.5H9C9.414 1.5 9.75 1.16475 9.75 0.75C9.75 0.33525 9.414 0 9 0H3.75C1.68225 0 0 1.68225 0 3.75V14.25C0 16.3177 1.68225 18 3.75 18H8.25C10.3177 18 12 16.3177 12 14.25V12.75C12 12.3352 11.664 12 11.25 12ZM10.5 14.25C10.5 15.4905 9.4905 16.5 8.25 16.5H3.75C2.5095 16.5 1.5 15.4905 1.5 14.25V13.5H10.5V14.25ZM4.875 15C4.875 14.5852 5.211 14.25 5.625 14.25H6.375C6.789 14.25 7.125 14.5852 7.125 15C7.125 15.4148 6.789 15.75 6.375 15.75H5.625C5.211 15.75 4.875 15.4148 4.875 15ZM16.5 3H7.5C6.67125 3 6 3.67125 6 4.5V9C6 9.82875 6.67125 10.5 7.5 10.5H16.5C17.3288 10.5 18 9.82875 18 9V4.5C18 3.67125 17.3288 3 16.5 3ZM7.875 9.75C7.254 9.75 6.75 9.246 6.75 8.625C6.75 8.004 7.254 7.5 7.875 7.5C8.496 7.5 9 8.004 9 8.625C9 9.246 8.496 9.75 7.875 9.75ZM7.875 6C7.254 6 6.75 5.496 6.75 4.875C6.75 4.254 7.254 3.75 7.875 3.75C8.496 3.75 9 4.254 9 4.875C9 5.496 8.496 6 7.875 6ZM12 9C10.7572 9 9.75 7.99275 9.75 6.75C9.75 5.50725 10.7572 4.5 12 4.5C13.2428 4.5 14.25 5.50725 14.25 6.75C14.25 7.99275 13.2428 9 12 9ZM16.125 9.75C15.504 9.75 15 9.246 15 8.625C15 8.004 15.504 7.5 16.125 7.5C16.746 7.5 17.25 8.004 17.25 8.625C17.25 9.246 16.746 9.75 16.125 9.75ZM16.125 6C15.504 6 15 5.496 15 4.875C15 4.254 15.504 3.75 16.125 3.75C16.746 3.75 17.25 4.254 17.25 4.875C17.25 5.496 16.746 6 16.125 6Z" fill="#263BD4"/>
</g>
<defs>
<clipPath id="clip0_1817_9131">
<rect width="18" height="18" fill="white"/>
</clipPath>
</defs>
</svg>
