<svg width="15" height="15" viewBox="0 0 20 20" fill="none" xmlns="http://www.w3.org/2000/svg">
<g clip-path="url(#clip0_1781_3784)">
<path d="M19.6275 18.4492L17.4058 16.2275C17.9875 15.41 18.3333 14.4133 18.3333 13.3333C18.3333 10.5717 16.095 8.33333 13.3333 8.33333C10.5717 8.33333 8.33333 10.5717 8.33333 13.3333C8.33333 16.095 10.5717 18.3333 13.3333 18.3333C14.4133 18.3333 15.41 17.9875 16.2275 17.4058L18.4492 19.6275L19.6275 18.4492ZM13.9567 15.37C13.3367 15.99 12.2417 15.9917 11.6042 15.3542L9.78583 13.4642L10.9417 12.2633L12.7883 14.1808L15.8 11.095L16.965 12.2867L13.9592 15.3667L13.9567 15.37ZM6.66667 13.3342C6.66667 9.65833 9.6575 6.6675 13.3333 6.6675C14.5483 6.6675 15.685 6.99917 16.6667 7.56917V5.83417V2.5C16.6667 1.12167 15.545 0 14.1667 0H2.5C1.12083 0 0 1.1225 0 2.50083V20H6.66667V19.9967L13.3 19.9983C9.63917 19.98 6.66667 16.9992 6.66667 13.3342ZM7.5 4.1675H13.3333V5.83417H7.5V4.1675ZM5.83333 14.1675H3.33333V12.5008H5.83333V14.1675ZM5.83333 10.0008H3.33333V8.33417H5.83333V10.0008ZM5.83333 5.83417H3.33333V4.1675H5.83333V5.83417Z" fill="#263BD4"/>
</g>
<defs>
<clipPath id="clip0_1781_3784">
<rect width="20" height="20" fill="white"/>
</clipPath>
</defs>
</svg>
