<svg width="90" height="36" viewBox="0 0 90 36" fill="none" xmlns="http://www.w3.org/2000/svg">
<rect x="0.5" y="0.5" width="89" height="35" rx="7.5" fill="white"/>
<rect x="0.5" y="0.5" width="89" height="35" rx="7.5" stroke="#D0D5DD"/>
<path d="M29.8334 17.9998H18.1667M18.1667 17.9998L24.0001 23.8332M18.1667 17.9998L24.0001 12.1665" stroke="#344054" stroke-width="1.67" stroke-linecap="round" stroke-linejoin="round"/>
<path d="M42.8849 23V12.8182H46.9616C47.7107 12.8182 48.3355 12.9292 48.8359 13.1513C49.3364 13.3733 49.7126 13.6816 49.9645 14.076C50.2164 14.4671 50.3423 14.9179 50.3423 15.4283C50.3423 15.826 50.2628 16.1757 50.1037 16.4773C49.9446 16.7756 49.7259 17.0208 49.4474 17.2131C49.1723 17.402 48.8575 17.5362 48.5028 17.6158V17.7152C48.8906 17.7318 49.2536 17.8411 49.5916 18.0433C49.933 18.2455 50.2098 18.5289 50.4219 18.8935C50.634 19.2547 50.7401 19.6856 50.7401 20.1861C50.7401 20.7263 50.6058 21.2086 50.3374 21.6328C50.0722 22.0537 49.6795 22.3868 49.1591 22.6321C48.6387 22.8774 47.9974 23 47.2351 23H42.8849ZM45.0376 21.2401H46.7926C47.3925 21.2401 47.83 21.1257 48.1051 20.897C48.3802 20.665 48.5178 20.3568 48.5178 19.9723C48.5178 19.6906 48.4498 19.442 48.3139 19.2266C48.178 19.0111 47.9841 18.8421 47.7322 18.7195C47.4837 18.5968 47.187 18.5355 46.8423 18.5355H45.0376V21.2401ZM45.0376 17.0788H46.6335C46.9285 17.0788 47.1903 17.0275 47.419 16.9247C47.651 16.8187 47.8333 16.6695 47.9659 16.4773C48.1018 16.285 48.1697 16.0547 48.1697 15.7862C48.1697 15.4183 48.0388 15.1217 47.777 14.8963C47.5185 14.6709 47.1506 14.5582 46.6733 14.5582H45.0376V17.0788ZM54.2786 23.1442C53.7914 23.1442 53.3572 23.0597 52.976 22.8906C52.5949 22.7183 52.2933 22.4647 52.0712 22.13C51.8525 21.7919 51.7431 21.371 51.7431 20.8672C51.7431 20.4429 51.821 20.0866 51.9767 19.7983C52.1325 19.5099 52.3446 19.2779 52.6131 19.1023C52.8816 18.9266 53.1865 18.794 53.5279 18.7045C53.8726 18.6151 54.2338 18.5521 54.6117 18.5156C55.0558 18.4692 55.4138 18.4261 55.6855 18.3864C55.9573 18.3433 56.1545 18.2803 56.2772 18.1974C56.3998 18.1146 56.4611 17.992 56.4611 17.8295V17.7997C56.4611 17.4848 56.3617 17.2412 56.1628 17.0689C55.9673 16.8965 55.6889 16.8104 55.3276 16.8104C54.9464 16.8104 54.6432 16.8949 54.4178 17.0639C54.1924 17.2296 54.0433 17.4384 53.9703 17.6903L52.0115 17.5312C52.111 17.0672 52.3065 16.6662 52.5982 16.3281C52.8899 15.9867 53.266 15.7249 53.7267 15.5426C54.1908 15.357 54.7277 15.2642 55.3375 15.2642C55.7618 15.2642 56.1678 15.3139 56.5556 15.4134C56.9467 15.5128 57.293 15.6669 57.5946 15.8757C57.8996 16.0845 58.1399 16.353 58.3155 16.6811C58.4912 17.0059 58.579 17.3954 58.579 17.8494V23H56.5705V21.9411H56.5108C56.3882 22.1797 56.2241 22.3902 56.0186 22.5724C55.8132 22.7514 55.5662 22.8923 55.2779 22.995C54.9895 23.0945 54.6564 23.1442 54.2786 23.1442ZM54.8851 21.6825C55.1967 21.6825 55.4718 21.6212 55.7104 21.4986C55.949 21.3726 56.1363 21.2036 56.2722 20.9915C56.4081 20.7794 56.476 20.5391 56.476 20.2706V19.4602C56.4097 19.5033 56.3186 19.5431 56.2026 19.5795C56.0899 19.6127 55.9623 19.6442 55.8198 19.674C55.6773 19.7005 55.5347 19.7254 55.3922 19.7486C55.2497 19.7685 55.1204 19.7867 55.0044 19.8033C54.7559 19.8397 54.5388 19.8977 54.3532 19.9773C54.1676 20.0568 54.0234 20.1645 53.9206 20.3004C53.8179 20.433 53.7665 20.5987 53.7665 20.7976C53.7665 21.0859 53.8709 21.3063 54.0797 21.4588C54.2918 21.608 54.5603 21.6825 54.8851 21.6825ZM63.6724 23.1491C62.8902 23.1491 62.2174 22.9834 61.6539 22.652C61.0938 22.3172 60.6629 21.8532 60.3613 21.2599C60.063 20.6667 59.9139 19.9839 59.9139 19.2116C59.9139 18.4295 60.0647 17.7434 60.3663 17.1534C60.6712 16.5601 61.1038 16.0978 61.6639 15.7663C62.224 15.4316 62.8902 15.2642 63.6625 15.2642C64.3287 15.2642 64.912 15.3852 65.4125 15.6271C65.9129 15.8691 66.309 16.2088 66.6007 16.6463C66.8923 17.0838 67.0531 17.5975 67.0829 18.1875H65.0843C65.028 17.8063 64.8788 17.4998 64.6369 17.2678C64.3983 17.0324 64.085 16.9148 63.6973 16.9148C63.3691 16.9148 63.0824 17.0043 62.8372 17.1832C62.5952 17.3589 62.4063 17.6158 62.2704 17.9538C62.1345 18.2919 62.0666 18.7012 62.0666 19.1818C62.0666 19.669 62.1329 20.0833 62.2654 20.4247C62.4013 20.7661 62.5919 21.0263 62.8372 21.2053C63.0824 21.3842 63.3691 21.4737 63.6973 21.4737C63.9392 21.4737 64.1563 21.424 64.3485 21.3246C64.5441 21.2251 64.7048 21.081 64.8308 20.892C64.96 20.6998 65.0446 20.4695 65.0843 20.201H67.0829C67.0498 20.7843 66.8907 21.2981 66.6056 21.7422C66.3239 22.183 65.9345 22.5277 65.4373 22.7763C64.9402 23.0249 64.3519 23.1491 63.6724 23.1491ZM70.358 20.8026L70.3629 18.2621H70.6712L73.1172 15.3636H75.5483L72.2621 19.2017H71.7599L70.358 20.8026ZM68.4389 23V12.8182H70.5568V23H68.4389ZM73.2116 23L70.9645 19.674L72.3764 18.1776L75.6925 23H73.2116Z" fill="#344054"/>
</svg>
