<svg width="20" height="20" viewBox="0 0 20 20" fill="none" xmlns="http://www.w3.org/2000/svg">
<path d="M4.16659 12.5C3.38325 12.5 2.65825 12.775 2.08325 13.2333C1.31659 13.8417 0.833252 14.7833 0.833252 15.8333C0.833252 16.4583 1.00825 17.05 1.31659 17.55C1.89159 18.5167 2.94992 19.1667 4.16659 19.1667C5.00825 19.1667 5.77492 18.8583 6.35825 18.3333C6.61659 18.1167 6.84159 17.85 7.01659 17.55C7.32492 17.05 7.49992 16.4583 7.49992 15.8333C7.49992 13.9917 6.00825 12.5 4.16659 12.5ZM5.89159 15.475L4.11659 17.1167C3.99992 17.225 3.84159 17.2833 3.69159 17.2833C3.53325 17.2833 3.37492 17.225 3.24992 17.1L2.42492 16.275C2.18325 16.0333 2.18325 15.6333 2.42492 15.3917C2.66659 15.15 3.06659 15.15 3.30825 15.3917L3.70825 15.7917L5.04159 14.5583C5.29159 14.325 5.69159 14.3417 5.92492 14.5917C6.15825 14.8417 6.14159 15.2417 5.89159 15.475Z" fill="#8B909A"/>
<path d="M12.3749 3.29168V6.45834H11.1249V3.29168C11.1249 3.06668 10.9249 2.95834 10.7916 2.95834C10.7499 2.95834 10.7083 2.96668 10.6666 2.98334L4.05825 5.47501C3.61659 5.64168 3.33325 6.05834 3.33325 6.53334V7.09168C2.57492 7.65834 2.08325 8.56668 2.08325 9.59168V6.53334C2.08325 5.54168 2.69159 4.65834 3.61659 4.30834L10.2333 1.80834C10.4166 1.74168 10.6083 1.70834 10.7916 1.70834C11.6249 1.70834 12.3749 2.38334 12.3749 3.29168Z" fill="#8B909A"/>
<path d="M17.9167 12.0833V12.9167C17.9167 13.1417 17.7417 13.325 17.5083 13.3333H16.2917C15.85 13.3333 15.45 13.0083 15.4167 12.575C15.3917 12.3167 15.4917 12.075 15.6583 11.9083C15.8083 11.75 16.0167 11.6667 16.2417 11.6667H17.5C17.7417 11.675 17.9167 11.8583 17.9167 12.0833Z" fill="#8B909A"/>
<path d="M16.2333 10.7917H17.0833C17.5416 10.7917 17.9166 10.4167 17.9166 9.95834V9.59168C17.9166 7.86668 16.5083 6.45834 14.7833 6.45834H5.21659C4.50825 6.45834 3.85825 6.69168 3.33325 7.09168C2.57492 7.65834 2.08325 8.56668 2.08325 9.59168V11.075C2.08325 11.3917 2.41659 11.5917 2.71659 11.4917C3.18325 11.3333 3.67492 11.25 4.16659 11.25C6.69159 11.25 8.74992 13.3083 8.74992 15.8333C8.74992 16.4333 8.59159 17.0917 8.34159 17.675C8.20825 17.975 8.41658 18.3333 8.74158 18.3333H14.7833C16.5083 18.3333 17.9166 16.925 17.9166 15.2V15.0417C17.9166 14.5833 17.5416 14.2083 17.0833 14.2083H16.3583C15.5583 14.2083 14.7916 13.7167 14.5833 12.9417C14.4166 12.3083 14.6166 11.6917 15.0333 11.2917C15.3416 10.975 15.7666 10.7917 16.2333 10.7917ZM11.6666 10.625H7.49992C7.15825 10.625 6.87492 10.3417 6.87492 10C6.87492 9.65834 7.15825 9.37501 7.49992 9.37501H11.6666C12.0083 9.37501 12.2916 9.65834 12.2916 10C12.2916 10.3417 12.0083 10.625 11.6666 10.625Z" fill="#8B909A"/>
</svg>
