<svg width="20" height="20" viewBox="0 0 20 20" fill="none" xmlns="http://www.w3.org/2000/svg">
<path d="M4.16634 12.5C3.38301 12.5 2.65801 12.775 2.08301 13.2333C1.31634 13.8417 0.833008 14.7833 0.833008 15.8333C0.833008 16.4583 1.00801 17.05 1.31634 17.55C1.89134 18.5167 2.94967 19.1667 4.16634 19.1667C5.00801 19.1667 5.77467 18.8583 6.35801 18.3333C6.61634 18.1167 6.84134 17.85 7.01634 17.55C7.32467 17.05 7.49967 16.4583 7.49967 15.8333C7.49967 13.9917 6.00801 12.5 4.16634 12.5ZM5.89134 15.475L4.11634 17.1167C3.99967 17.225 3.84134 17.2833 3.69134 17.2833C3.53301 17.2833 3.37467 17.225 3.24967 17.1L2.42467 16.275C2.18301 16.0333 2.18301 15.6333 2.42467 15.3917C2.66634 15.15 3.06634 15.15 3.30801 15.3917L3.70801 15.7917L5.04134 14.5583C5.29134 14.325 5.69134 14.3417 5.92467 14.5917C6.15801 14.8417 6.14134 15.2417 5.89134 15.475Z" fill="#8B909A"/>
<path d="M12.3747 3.29168V6.45834H11.1247V3.29168C11.1247 3.06668 10.9247 2.95834 10.7913 2.95834C10.7497 2.95834 10.708 2.96668 10.6663 2.98334L4.05801 5.47501C3.61634 5.64168 3.33301 6.05834 3.33301 6.53334V7.09168C2.57467 7.65834 2.08301 8.56668 2.08301 9.59168V6.53334C2.08301 5.54168 2.69134 4.65834 3.61634 4.30834L10.233 1.80834C10.4163 1.74168 10.608 1.70834 10.7913 1.70834C11.6247 1.70834 12.3747 2.38334 12.3747 3.29168Z" fill="#8B909A"/>
<path d="M17.9169 12.0833V12.9167C17.9169 13.1417 17.7419 13.325 17.5086 13.3333H16.2919C15.8502 13.3333 15.4502 13.0083 15.4169 12.575C15.3919 12.3167 15.4919 12.075 15.6586 11.9083C15.8086 11.75 16.0169 11.6667 16.2419 11.6667H17.5002C17.7419 11.675 17.9169 11.8583 17.9169 12.0833Z" fill="#8B909A"/>
<path d="M16.233 10.7917H17.083C17.5413 10.7917 17.9163 10.4167 17.9163 9.95834V9.59168C17.9163 7.86668 16.508 6.45834 14.783 6.45834H5.21634C4.50801 6.45834 3.85801 6.69168 3.33301 7.09168C2.57467 7.65834 2.08301 8.56668 2.08301 9.59168V11.075C2.08301 11.3917 2.41634 11.5917 2.71634 11.4917C3.18301 11.3333 3.67467 11.25 4.16634 11.25C6.69134 11.25 8.74967 13.3083 8.74967 15.8333C8.74967 16.4333 8.59134 17.0917 8.34134 17.675C8.20801 17.975 8.41634 18.3333 8.74134 18.3333H14.783C16.508 18.3333 17.9163 16.925 17.9163 15.2V15.0417C17.9163 14.5833 17.5413 14.2083 17.083 14.2083H16.358C15.558 14.2083 14.7913 13.7167 14.583 12.9417C14.4163 12.3083 14.6163 11.6917 15.033 11.2917C15.3413 10.975 15.7663 10.7917 16.233 10.7917ZM11.6663 10.625H7.49967C7.15801 10.625 6.87467 10.3417 6.87467 10C6.87467 9.65834 7.15801 9.37501 7.49967 9.37501H11.6663C12.008 9.37501 12.2913 9.65834 12.2913 10C12.2913 10.3417 12.008 10.625 11.6663 10.625Z" fill="#8B909A"/>
</svg>
