<svg width="15" height="15" viewBox="0 0 20 20" fill="none" xmlns="http://www.w3.org/2000/svg">
<path d="M9.97287 9.97751C11.677 9.97751 12.9136 9.13711 13.549 7.54719C14.0367 6.32695 14.1025 4.88753 14.1025 3.6404C14.1025 1.3609 12.5587 0 9.97287 0C7.38705 0 5.84326 1.36086 5.84326 3.6404C5.84326 4.88753 5.90904 6.32695 6.3967 7.54719C7.03217 9.13711 8.26877 9.97751 9.97287 9.97751Z" fill="#868E96"/>
<path d="M11.5053 11.0545H8.41643C5.45857 11.0545 3.05225 13.4621 3.05225 16.4215V16.7883C3.05225 18.5592 4.49225 20 6.26232 20H13.6595C15.4295 20 16.8696 18.5592 16.8696 16.7883V16.4215C16.8695 13.4621 14.4632 11.0545 11.5053 11.0545Z" fill="#868E96"/>
<path d="M15.3524 3.64044C15.3524 5.71996 15.1453 7.99989 13.7651 9.59001C14.1093 9.72512 14.4951 9.79433 14.9194 9.79433C16.2102 9.79433 17.1468 9.15795 17.628 7.95389C17.9858 7.0585 18.0341 6.01445 18.0341 5.1112C18.0341 3.52671 17.0288 2.45198 15.2078 2.35208C15.3034 2.75694 15.3524 3.18755 15.3524 3.64044Z" fill="#868E96"/>
<path d="M5.09743 9.79433C5.49985 9.79433 5.86778 9.73246 6.19829 9.61084C4.80032 8.01865 4.59314 5.71773 4.59314 3.64044C4.59314 3.18927 4.64173 2.76018 4.73673 2.35661C3.05767 2.47371 1.98267 3.458 1.98267 5.11116C1.98267 6.01437 2.03091 7.05846 2.38876 7.95389C2.87001 9.15795 3.80661 9.79433 5.09743 9.79433Z" fill="#868E96"/>
<path d="M1.8023 16.4215C1.8023 14.0109 3.09734 11.8975 5.02777 10.7406H3.9918C1.79074 10.7406 0 12.5322 0 14.7345V14.995C0 16.1387 0.78332 17.1028 1.84137 17.3785C1.79496 17.0288 1.8023 16.8152 1.8023 16.4215Z" fill="#868E96"/>
<path d="M16.008 10.7406H14.8945C16.8247 11.8976 18.1194 14.0111 18.1194 16.4215C18.1194 16.8115 18.1273 17.0353 18.0777 17.3975C19.1763 17.1507 19.9998 16.1676 19.9998 14.995V14.7345C19.9998 12.5322 18.2091 10.7406 16.008 10.7406Z" fill="#868E96"/>
</svg>
