<svg width="15" height="15" viewBox="0 0 20 20" fill="none" xmlns="http://www.w3.org/2000/svg">
<path fill-rule="evenodd" clip-rule="evenodd" d="M1.14289 6.78584C6.02455 1.90501 13.9396 1.90501 18.8204 6.78584C18.8785 6.84388 18.9245 6.9128 18.956 6.98865C18.9874 7.06451 19.0036 7.14581 19.0036 7.22792C19.0036 7.31003 18.9874 7.39134 18.956 7.46719C18.9245 7.54305 18.8785 7.61196 18.8204 7.67001L18.3787 8.11167C18.2615 8.22871 18.1027 8.29446 17.9371 8.29446C17.7714 8.29446 17.6126 8.22871 17.4954 8.11167C13.3454 3.96251 6.61789 3.96251 2.46872 8.11167C2.35153 8.22871 2.19268 8.29446 2.02705 8.29446C1.86143 8.29446 1.70258 8.22871 1.58539 8.11167L1.14372 7.67001C1.02668 7.55282 0.960938 7.39396 0.960938 7.22834C0.960938 7.06271 1.02668 6.90386 1.14372 6.78667L1.14289 6.78584ZM3.79455 9.43751C7.21122 6.02084 12.7521 6.02084 16.1696 9.43751C16.2276 9.49555 16.2737 9.56447 16.3051 9.64032C16.3366 9.71617 16.3528 9.79748 16.3528 9.87959C16.3528 9.9617 16.3366 10.043 16.3051 10.1189C16.2737 10.1947 16.2276 10.2636 16.1696 10.3217L15.7279 10.7633C15.6698 10.8215 15.6009 10.8677 15.5249 10.8992C15.449 10.9307 15.3676 10.947 15.2854 10.947C15.2032 10.947 15.1218 10.9307 15.0458 10.8992C14.9699 10.8677 14.9009 10.8215 14.8429 10.7633C13.5536 9.47409 11.8049 8.74981 9.98164 8.74981C8.15833 8.74981 6.40969 9.47409 5.12039 10.7633C5.0032 10.8804 4.84435 10.9461 4.67872 10.9461C4.5131 10.9461 4.35424 10.8804 4.23705 10.7633L3.79539 10.3217C3.67835 10.2045 3.6126 10.0456 3.6126 9.88001C3.6126 9.71438 3.67835 9.55553 3.79539 9.43834L3.79455 9.43751ZM6.46455 12.0892C6.92886 11.6248 7.48009 11.2564 8.08677 11.0051C8.69346 10.7538 9.34371 10.6244 10.0004 10.6244C10.6571 10.6244 11.3073 10.7538 11.914 11.0051C12.5207 11.2564 13.0719 11.6248 13.5362 12.0892C13.5943 12.1472 13.6404 12.2161 13.6718 12.292C13.7032 12.3678 13.7194 12.4491 13.7194 12.5313C13.7194 12.6134 13.7032 12.6947 13.6718 12.7705C13.6404 12.8464 13.5943 12.9153 13.5362 12.9733L13.0946 13.415C13.0365 13.4731 12.9676 13.5192 12.8917 13.5506C12.8159 13.582 12.7346 13.5982 12.6525 13.5982C12.5704 13.5982 12.4891 13.582 12.4132 13.5506C12.3373 13.5192 12.2684 13.4731 12.2104 13.415C11.9202 13.1247 11.5757 12.8945 11.1965 12.7374C10.8173 12.5803 10.4108 12.4994 10.0004 12.4994C9.58994 12.4994 9.18351 12.5803 8.80431 12.7374C8.42511 12.8945 8.08058 13.1247 7.79039 13.415C7.6732 13.532 7.51435 13.5978 7.34872 13.5978C7.18309 13.5978 7.02424 13.532 6.90705 13.415L6.46539 12.9733C6.34835 12.8562 6.2826 12.6973 6.2826 12.5317C6.2826 12.366 6.34835 12.2072 6.46539 12.09L6.46455 12.0892ZM9.11622 14.7408C9.2323 14.6247 9.37014 14.5325 9.52185 14.4697C9.67356 14.4068 9.83617 14.3744 10.0004 14.3744C10.1646 14.3744 10.3272 14.4068 10.4789 14.4697C10.6306 14.5325 10.7685 14.6247 10.8846 14.7408C10.9426 14.7989 10.9887 14.8678 11.0201 14.9437C11.0516 15.0195 11.0678 15.1008 11.0678 15.1829C11.0678 15.265 11.0516 15.3463 11.0201 15.4222C10.9887 15.498 10.9426 15.567 10.8846 15.625L10.4429 16.0667C10.3848 16.1248 10.3159 16.1708 10.2401 16.2023C10.1642 16.2337 10.0829 16.2499 10.0008 16.2499C9.91869 16.2499 9.83739 16.2337 9.76153 16.2023C9.68568 16.1708 9.61676 16.1248 9.55872 16.0667L9.11705 15.625C9.00001 15.5078 8.93427 15.349 8.93427 15.1833C8.93427 15.0177 9.00001 14.8589 9.11705 14.7417L9.11622 14.7408Z" fill="#263BD4"/>
</svg>
