<svg width="15" height="10" viewBox="0 0 19 14" fill="none" xmlns="http://www.w3.org/2000/svg">
<path fill-rule="evenodd" clip-rule="evenodd" d="M1.14289 3.78584C6.02455 -1.09499 13.9396 -1.09499 18.8204 3.78584C18.8785 3.84388 18.9245 3.9128 18.956 3.98865C18.9874 4.06451 19.0036 4.14581 19.0036 4.22792C19.0036 4.31003 18.9874 4.39134 18.956 4.46719C18.9245 4.54305 18.8785 4.61196 18.8204 4.67001L18.3787 5.11167C18.2615 5.22871 18.1027 5.29446 17.9371 5.29446C17.7714 5.29446 17.6126 5.22871 17.4954 5.11167C13.3454 0.962506 6.61789 0.962506 2.46872 5.11167C2.35153 5.22871 2.19268 5.29446 2.02705 5.29446C1.86143 5.29446 1.70258 5.22871 1.58539 5.11167L1.14372 4.67001C1.02668 4.55282 0.960938 4.39396 0.960938 4.22834C0.960938 4.06271 1.02668 3.90386 1.14372 3.78667L1.14289 3.78584ZM3.79455 6.43751C7.21122 3.02084 12.7521 3.02084 16.1696 6.43751C16.2276 6.49555 16.2737 6.56447 16.3051 6.64032C16.3366 6.71617 16.3528 6.79748 16.3528 6.87959C16.3528 6.9617 16.3366 7.043 16.3051 7.11886C16.2737 7.19471 16.2276 7.26363 16.1696 7.32167L15.7279 7.76334C15.6698 7.82154 15.6009 7.86772 15.5249 7.89923C15.449 7.93074 15.3676 7.94696 15.2854 7.94696C15.2032 7.94696 15.1218 7.93074 15.0458 7.89923C14.9699 7.86772 14.9009 7.82154 14.8429 7.76334C13.5536 6.47409 11.8049 5.74981 9.98164 5.74981C8.15833 5.74981 6.40969 6.47409 5.12039 7.76334C5.0032 7.88038 4.84435 7.94612 4.67872 7.94612C4.5131 7.94612 4.35424 7.88038 4.23705 7.76334L3.79539 7.32167C3.67835 7.20448 3.6126 7.04563 3.6126 6.88001C3.6126 6.71438 3.67835 6.55553 3.79539 6.43834L3.79455 6.43751ZM6.46455 9.08917C6.92886 8.62479 7.48009 8.25642 8.08677 8.00509C8.69346 7.75376 9.34371 7.62441 10.0004 7.62441C10.6571 7.62441 11.3073 7.75376 11.914 8.00509C12.5207 8.25642 13.0719 8.62479 13.5362 9.08917C13.5943 9.14721 13.6404 9.21613 13.6718 9.29199C13.7032 9.36784 13.7194 9.44915 13.7194 9.53126C13.7194 9.61337 13.7032 9.69467 13.6718 9.77053C13.6404 9.84638 13.5943 9.9153 13.5362 9.97334L13.0946 10.415C13.0365 10.4731 12.9676 10.5192 12.8917 10.5506C12.8159 10.582 12.7346 10.5982 12.6525 10.5982C12.5704 10.5982 12.4891 10.582 12.4132 10.5506C12.3373 10.5192 12.2684 10.4731 12.2104 10.415C11.9202 10.1247 11.5757 9.89448 11.1965 9.73738C10.8173 9.58028 10.4108 9.49942 10.0004 9.49942C9.58994 9.49942 9.18351 9.58028 8.80431 9.73738C8.42511 9.89448 8.08058 10.1247 7.79039 10.415C7.6732 10.532 7.51435 10.5978 7.34872 10.5978C7.18309 10.5978 7.02424 10.532 6.90705 10.415L6.46539 9.97334C6.34835 9.85615 6.2826 9.6973 6.2826 9.53167C6.2826 9.36605 6.34835 9.20719 6.46539 9.09001L6.46455 9.08917ZM9.11622 11.7408C9.2323 11.6247 9.37014 11.5325 9.52185 11.4697C9.67356 11.4068 9.83617 11.3744 10.0004 11.3744C10.1646 11.3744 10.3272 11.4068 10.4789 11.4697C10.6306 11.5325 10.7685 11.6247 10.8846 11.7408C10.9426 11.7989 10.9887 11.8678 11.0201 11.9437C11.0516 12.0195 11.0678 12.1008 11.0678 12.1829C11.0678 12.265 11.0516 12.3463 11.0201 12.4222C10.9887 12.498 10.9426 12.567 10.8846 12.625L10.4429 13.0667C10.3848 13.1248 10.3159 13.1708 10.2401 13.2023C10.1642 13.2337 10.0829 13.2499 10.0008 13.2499C9.91869 13.2499 9.83739 13.2337 9.76153 13.2023C9.68568 13.1708 9.61676 13.1248 9.55872 13.0667L9.11705 12.625C9.00001 12.5078 8.93427 12.349 8.93427 12.1833C8.93427 12.0177 9.00001 11.8589 9.11705 11.7417L9.11622 11.7408Z" fill="#8B909A"/>
</svg>
