<svg width="127" height="36" viewBox="0 0 127 36" fill="none" xmlns="http://www.w3.org/2000/svg">
<rect x="0.5" y="0.5" width="126" height="35" rx="5.5" fill="white"/>
<rect x="0.5" y="0.5" width="126" height="35" rx="5.5" stroke="#ECEFF3"/>
<path d="M14.2161 12.8182L17.0499 21.1108H17.1643L19.9981 12.8182H21.6586L17.9946 23H16.2197L12.5556 12.8182H14.2161ZM22.8596 23V15.3636H24.3461V23H22.8596ZM23.6104 14.1854C23.3518 14.1854 23.1298 14.0992 22.9442 13.9268C22.7619 13.7512 22.6707 13.5424 22.6707 13.3004C22.6707 13.0552 22.7619 12.8464 22.9442 12.674C23.1298 12.4983 23.3518 12.4105 23.6104 12.4105C23.8689 12.4105 24.0893 12.4983 24.2716 12.674C24.4572 12.8464 24.55 13.0552 24.55 13.3004C24.55 13.5424 24.4572 13.7512 24.2716 13.9268C24.0893 14.0992 23.8689 14.1854 23.6104 14.1854ZM29.4872 23.1541C28.7348 23.1541 28.0868 22.9934 27.5433 22.6719C27.003 22.3471 26.5854 21.8913 26.2904 21.3047C25.9988 20.7147 25.8529 20.0237 25.8529 19.2315C25.8529 18.4493 25.9988 17.7599 26.2904 17.1634C26.5854 16.5668 26.9964 16.1011 27.5234 15.7663C28.0537 15.4316 28.6735 15.2642 29.3828 15.2642C29.8136 15.2642 30.2312 15.3355 30.6356 15.478C31.04 15.6205 31.4029 15.8442 31.7244 16.1491C32.0459 16.4541 32.2994 16.8501 32.485 17.3374C32.6706 17.8213 32.7634 18.4096 32.7634 19.1023V19.6293L26.6931 19.6293V18.5156H31.3068C31.3068 18.1245 31.2272 17.7782 31.0681 17.4766C30.909 17.1716 30.6853 16.9313 30.397 16.7557C30.1119 16.58 29.7772 16.4922 29.3927 16.4922C28.9751 16.4922 28.6105 16.5949 28.299 16.8004C27.9907 17.0026 27.7521 17.2678 27.583 17.5959C27.4173 17.9207 27.3345 18.2737 27.3345 18.6548V19.5249C27.3345 20.0353 27.424 20.4695 27.6029 20.8274C27.7852 21.1854 28.0388 21.4588 28.3636 21.6477C28.6884 21.8333 29.0679 21.9261 29.5021 21.9261C29.7838 21.9261 30.0407 21.8864 30.2727 21.8068C30.5047 21.724 30.7052 21.6013 30.8742 21.4389C31.0433 21.2765 31.1725 21.076 31.262 20.8374L32.669 21.0909C32.5563 21.5052 32.3541 21.8681 32.0624 22.1797C31.7741 22.4879 31.4112 22.7282 30.9737 22.9006C30.5395 23.0696 30.044 23.1541 29.4872 23.1541ZM35.9046 23L33.6575 15.3636H35.1937L36.6901 20.9716H36.7647L38.2661 15.3636H39.8024L41.2938 20.9467H41.3684L42.8549 15.3636H44.3911L42.149 23H40.6326L39.0815 17.4865H38.9671L37.416 23H35.9046ZM52.0656 23.1491C51.4491 23.1491 50.8989 22.9917 50.415 22.6768C49.9344 22.3587 49.5566 21.9062 49.2815 21.3196C49.0097 20.7296 48.8738 20.022 48.8738 19.1967C48.8738 18.3714 49.0114 17.6655 49.2865 17.0788C49.5649 16.4922 49.946 16.0431 50.4299 15.7315C50.9138 15.42 51.4624 15.2642 52.0755 15.2642C52.5495 15.2642 52.9306 15.3437 53.219 15.5028C53.5106 15.6586 53.736 15.8409 53.8951 16.0497C54.0575 16.2585 54.1835 16.4425 54.273 16.6016H54.3624V12.8182H55.849V23H54.3972V21.8118H54.273C54.1835 21.9742 54.0542 22.1598 53.8852 22.3686C53.7195 22.5774 53.4908 22.7597 53.1991 22.9155C52.9074 23.0713 52.5296 23.1491 52.0656 23.1491ZM52.3937 21.8814C52.8213 21.8814 53.1825 21.7687 53.4775 21.5433C53.7758 21.3146 54.0012 20.9981 54.1536 20.5937C54.3094 20.1894 54.3873 19.7187 54.3873 19.1818C54.3873 18.6515 54.3111 18.1875 54.1586 17.7898C54.0062 17.392 53.7824 17.0821 53.4874 16.8601C53.1925 16.638 52.8279 16.527 52.3937 16.527C51.9463 16.527 51.5734 16.643 51.2751 16.875C50.9768 17.107 50.7514 17.4235 50.599 17.8246C50.4498 18.2256 50.3752 18.678 50.3752 19.1818C50.3752 19.6922 50.4515 20.1513 50.6039 20.5589C50.7564 20.9666 50.9818 21.2898 51.2801 21.5284C51.5817 21.7637 51.9529 21.8814 52.3937 21.8814ZM61.0372 23.1541C60.3213 23.1541 59.6965 22.9901 59.1629 22.6619C58.6293 22.3338 58.215 21.8748 57.92 21.2848C57.625 20.6948 57.4775 20.0054 57.4775 19.2166C57.4775 18.4245 57.625 17.7318 57.92 17.1385C58.215 16.5452 58.6293 16.0845 59.1629 15.7564C59.6965 15.4283 60.3213 15.2642 61.0372 15.2642C61.7531 15.2642 62.3779 15.4283 62.9115 15.7564C63.4451 16.0845 63.8594 16.5452 64.1544 17.1385C64.4494 17.7318 64.5969 18.4245 64.5969 19.2166C64.5969 20.0054 64.4494 20.6948 64.1544 21.2848C63.8594 21.8748 63.4451 22.3338 62.9115 22.6619C62.3779 22.9901 61.7531 23.1541 61.0372 23.1541ZM61.0422 21.9062C61.5062 21.9062 61.8907 21.7836 62.1956 21.5384C62.5005 21.2931 62.7259 20.9666 62.8717 20.5589C63.0209 20.1513 63.0954 19.7022 63.0954 19.2116C63.0954 18.7244 63.0209 18.277 62.8717 17.8693C62.7259 17.4583 62.5005 17.1286 62.1956 16.88C61.8907 16.6314 61.5062 16.5071 61.0422 16.5071C60.5748 16.5071 60.1871 16.6314 59.8788 16.88C59.5739 17.1286 59.3469 17.4583 59.1977 17.8693C59.0519 18.277 58.979 18.7244 58.979 19.2116C58.979 19.7022 59.0519 20.1513 59.1977 20.5589C59.3469 20.9666 59.5739 21.2931 59.8788 21.5384C60.1871 21.7836 60.5748 21.9062 61.0422 21.9062ZM69.3227 23.1541C68.5836 23.1541 67.9473 22.9867 67.4137 22.652C66.8834 22.3139 66.4757 21.8482 66.1906 21.255C65.9056 20.6617 65.7631 19.9822 65.7631 19.2166C65.7631 18.4411 65.9089 17.7566 66.2006 17.1634C66.4923 16.5668 66.9032 16.1011 67.4335 15.7663C67.9638 15.4316 68.5886 15.2642 69.3078 15.2642C69.8879 15.2642 70.4049 15.3719 70.859 15.5874C71.313 15.7995 71.6793 16.0978 71.9577 16.4822C72.2394 16.8667 72.4068 17.3158 72.4598 17.8295H71.0131C70.9335 17.4716 70.7513 17.1634 70.4662 16.9048C70.1845 16.6463 69.8066 16.517 69.3327 16.517C68.9184 16.517 68.5555 16.6264 68.2439 16.8452C67.9357 17.0606 67.6954 17.3688 67.523 17.7699C67.3507 18.1676 67.2645 18.6383 67.2645 19.1818C67.2645 19.7386 67.349 20.2192 67.5181 20.6236C67.6871 21.0279 67.9257 21.3411 68.234 21.5632C68.5455 21.7853 68.9118 21.8963 69.3327 21.8963C69.6144 21.8963 69.8696 21.8449 70.0983 21.7422C70.3303 21.6361 70.5242 21.4853 70.68 21.2898C70.8391 21.0942 70.9501 20.8589 71.0131 20.5838H72.4598C72.4068 21.0777 72.246 21.5185 71.9776 21.9062C71.7091 22.294 71.3495 22.599 70.8987 22.821C70.4513 23.0431 69.926 23.1541 69.3227 23.1541ZM78.7368 19.8331V15.3636H80.2283V23H78.7667V21.6776H78.6871C78.5115 22.0852 78.2297 22.425 77.842 22.6967C77.4575 22.9652 76.9786 23.0994 76.4052 23.0994C75.9146 23.0994 75.4805 22.9917 75.1026 22.7763C74.7281 22.5575 74.4331 22.2344 74.2177 21.8068C74.0055 21.3793 73.8995 20.8506 73.8995 20.2209V15.3636H75.386V20.0419C75.386 20.5623 75.5302 20.9766 75.8185 21.2848C76.1069 21.593 76.4814 21.7472 76.9421 21.7472C77.2205 21.7472 77.4973 21.6776 77.7724 21.5384C78.0508 21.3991 78.2811 21.1887 78.4634 20.907C78.649 20.6252 78.7402 20.2673 78.7368 19.8331ZM82.0757 23V15.3636H83.5025V16.6065H83.597C83.7561 16.1856 84.0162 15.8575 84.3775 15.6222C84.7388 15.3835 85.1713 15.2642 85.6751 15.2642C86.1855 15.2642 86.6131 15.3835 86.9578 15.6222C87.3058 15.8608 87.5626 16.1889 87.7284 16.6065H87.8079C87.9902 16.1989 88.2802 15.8741 88.6779 15.6321C89.0757 15.3868 89.5496 15.2642 90.0998 15.2642C90.7925 15.2642 91.3576 15.4813 91.7951 15.9155C92.2359 16.3497 92.4563 17.0043 92.4563 17.8793V23H90.9698V18.0185C90.9698 17.5014 90.829 17.1269 90.5473 16.8949C90.2655 16.6629 89.9291 16.5469 89.538 16.5469C89.0541 16.5469 88.6779 16.696 88.4095 16.9943C88.141 17.2893 88.0068 17.6688 88.0068 18.1328V23L86.5252 23V17.924C86.5252 17.5097 86.396 17.1766 86.1374 16.9247C85.8789 16.6728 85.5425 16.5469 85.1282 16.5469C84.8465 16.5469 84.5863 16.6214 84.3477 16.7706C84.1124 16.9164 83.9218 17.1203 83.7759 17.3821C83.6334 17.6439 83.5622 17.9472 83.5622 18.2919V23H82.0757ZM97.5899 23.1541C96.8375 23.1541 96.1896 22.9934 95.646 22.6719C95.1058 22.3471 94.6881 21.8913 94.3932 21.3047C94.1015 20.7147 93.9557 20.0237 93.9557 19.2315C93.9557 18.4493 94.1015 17.7599 94.3932 17.1634C94.6881 16.5668 95.0991 16.1011 95.6261 15.7663C96.1564 15.4316 96.7762 15.2642 97.4855 15.2642C97.9164 15.2642 98.334 15.3355 98.7383 15.478C99.1427 15.6205 99.5056 15.8442 99.8271 16.1491C100.149 16.4541 100.402 16.8501 100.588 17.3374C100.773 17.8213 100.866 18.4096 100.866 19.1023V19.6293H94.7959V18.5156H99.4095C99.4095 18.1245 99.33 17.7782 99.1709 17.4766C99.0118 17.1716 98.7881 16.9313 98.4997 16.7557C98.2147 16.58 97.8799 16.4922 97.4954 16.4922C97.0778 16.4922 96.7132 16.5949 96.4017 16.8004C96.0934 17.0026 95.8548 17.2678 95.6858 17.5959C95.5201 17.9207 95.4372 18.2737 95.4372 18.6548V19.5249C95.4372 20.0353 95.5267 20.4695 95.7057 20.8274C95.888 21.1854 96.1415 21.4588 96.4663 21.6477C96.7911 21.8333 97.1706 21.9261 97.6048 21.9261C97.8865 21.9261 98.1434 21.8864 98.3754 21.8068C98.6074 21.724 98.8079 21.6013 98.977 21.4389C99.146 21.2765 99.2753 21.076 99.3648 20.8374L100.772 21.0909C100.659 21.5052 100.457 21.8681 100.165 22.1797C99.8768 22.4879 99.5139 22.7282 99.0764 22.9006C98.6422 23.0696 98.1467 23.1541 97.5899 23.1541ZM103.852 18.4659V23H102.366V15.3636H103.792V16.6065H103.887C104.062 16.2022 104.338 15.8774 104.712 15.6321C105.09 15.3868 105.566 15.2642 106.139 15.2642C106.659 15.2642 107.115 15.3736 107.506 15.5923C107.897 15.8078 108.2 16.1293 108.416 16.5568C108.631 16.9844 108.739 17.513 108.739 18.1428V23H107.253V18.3217C107.253 17.7682 107.108 17.3357 106.82 17.0241C106.532 16.7093 106.136 16.5518 105.632 16.5518C105.287 16.5518 104.981 16.6264 104.712 16.7756C104.447 16.9247 104.236 17.1435 104.081 17.4318C103.928 17.7169 103.852 18.0616 103.852 18.4659ZM114.147 15.3636V16.5568H109.976V15.3636L114.147 15.3636ZM111.095 13.5341L112.581 13.5341V20.7578C112.581 21.0462 112.624 21.2633 112.711 21.4091C112.797 21.5516 112.908 21.6494 113.044 21.7024C113.183 21.7521 113.334 21.777 113.496 21.777C113.615 21.777 113.72 21.7687 113.809 21.7521C113.899 21.7356 113.968 21.7223 114.018 21.7124L114.287 22.9403C114.2 22.9735 114.078 23.0066 113.919 23.0398C113.76 23.0762 113.561 23.0961 113.322 23.0994C112.931 23.1061 112.566 23.0365 112.228 22.8906C111.89 22.7448 111.617 22.5194 111.408 22.2145C111.199 21.9096 111.095 21.5268 111.095 21.0661V13.5341Z" fill="#36394A"/>
</svg>
