<svg width="30" height="31" viewBox="0 0 30 31" fill="none" xmlns="http://www.w3.org/2000/svg">
<rect y="0.304321" width="30" height="30" rx="4" fill="white"/>
<rect x="0.5" y="0.804321" width="29" height="29" rx="3.5" stroke="#263BD4" stroke-opacity="0.1"/>
<path fill-rule="evenodd" clip-rule="evenodd" d="M14.9999 16.471C15.6443 16.471 16.1666 15.9486 16.1666 15.3043C16.1666 14.66 15.6443 14.1376 14.9999 14.1376C14.3556 14.1376 13.8333 14.66 13.8333 15.3043C13.8333 15.9486 14.3556 16.471 14.9999 16.471Z" stroke="#555555" stroke-opacity="0.87" stroke-width="1.16667" stroke-linecap="round" stroke-linejoin="round"/>
<path fill-rule="evenodd" clip-rule="evenodd" d="M19.6667 16.471C20.311 16.471 20.8333 15.9486 20.8333 15.3043C20.8333 14.66 20.311 14.1376 19.6667 14.1376C19.0223 14.1376 18.5 14.66 18.5 15.3043C18.5 15.9486 19.0223 16.471 19.6667 16.471Z" stroke="#555555" stroke-opacity="0.87" stroke-width="1.16667" stroke-linecap="round" stroke-linejoin="round"/>
<path fill-rule="evenodd" clip-rule="evenodd" d="M10.3334 16.471C10.9777 16.471 11.5001 15.9486 11.5001 15.3043C11.5001 14.66 10.9777 14.1376 10.3334 14.1376C9.68908 14.1376 9.16675 14.66 9.16675 15.3043C9.16675 15.9486 9.68908 16.471 10.3334 16.471Z" stroke="#555555" stroke-opacity="0.87" stroke-width="1.16667" stroke-linecap="round" stroke-linejoin="round"/>
</svg>
