<svg width="15" height="15" viewBox="0 0 20 20" fill="none" xmlns="http://www.w3.org/2000/svg">
<path d="M13.4917 1.66667H6.50841C3.47508 1.66667 1.66675 3.47501 1.66675 6.50834V13.4833C1.66675 16.525 3.47508 18.3333 6.50841 18.3333H13.4834C16.5167 18.3333 18.3251 16.525 18.3251 13.4917V6.50834C18.3334 3.47501 16.5251 1.66667 13.4917 1.66667ZM6.35841 15.125C6.35841 15.4667 6.07508 15.75 5.73341 15.75C5.39175 15.75 5.10841 15.4667 5.10841 15.125V13.4C5.10841 13.0583 5.39175 12.775 5.73341 12.775C6.07508 12.775 6.35841 13.0583 6.35841 13.4V15.125ZM10.6251 15.125C10.6251 15.4667 10.3417 15.75 10.0001 15.75C9.65841 15.75 9.37508 15.4667 9.37508 15.125V11.6667C9.37508 11.325 9.65841 11.0417 10.0001 11.0417C10.3417 11.0417 10.6251 11.325 10.6251 11.6667V15.125ZM14.8917 15.125C14.8917 15.4667 14.6084 15.75 14.2667 15.75C13.9251 15.75 13.6417 15.4667 13.6417 15.125V9.94167C13.6417 9.60001 13.9251 9.31667 14.2667 9.31667C14.6084 9.31667 14.8917 9.60001 14.8917 9.94167V15.125ZM14.8917 7.30834C14.8917 7.65001 14.6084 7.93334 14.2667 7.93334C13.9251 7.93334 13.6417 7.65001 13.6417 7.30834V6.50001C11.5167 8.68334 8.85841 10.225 5.88341 10.9667C5.83341 10.9833 5.78341 10.9833 5.73341 10.9833C5.45008 10.9833 5.20008 10.7917 5.12508 10.5083C5.04175 10.175 5.24175 9.83334 5.58341 9.75001C8.39175 9.05001 10.8917 7.57501 12.8751 5.49167H11.8334C11.4917 5.49167 11.2084 5.20834 11.2084 4.86667C11.2084 4.52501 11.4917 4.24167 11.8334 4.24167H14.2751C14.3084 4.24167 14.3334 4.25834 14.3667 4.25834C14.4084 4.26667 14.4501 4.26667 14.4917 4.28334C14.5334 4.30001 14.5667 4.32501 14.6084 4.35001C14.6334 4.36667 14.6584 4.37501 14.6834 4.39167C14.6917 4.40001 14.6917 4.40834 14.7001 4.40834C14.7334 4.44167 14.7584 4.47501 14.7834 4.50834C14.8084 4.54167 14.8334 4.56667 14.8417 4.60001C14.8584 4.63334 14.8584 4.66667 14.8667 4.70834C14.8751 4.75001 14.8917 4.79167 14.8917 4.84167C14.8917 4.85001 14.9001 4.85834 14.9001 4.86667V7.30834H14.8917Z" fill="#8B909A"/>
</svg>
