<svg width="15" height="15" viewBox="0 0 20 20" fill="none" xmlns="http://www.w3.org/2000/svg">
<path d="M13.4915 1.66667H6.50817C3.47484 1.66667 1.6665 3.47501 1.6665 6.50834V13.4833C1.6665 16.525 3.47484 18.3333 6.50817 18.3333H13.4832C16.5165 18.3333 18.3248 16.525 18.3248 13.4917V6.50834C18.3332 3.47501 16.5248 1.66667 13.4915 1.66667ZM6.35817 15.125C6.35817 15.4667 6.07484 15.75 5.73317 15.75C5.3915 15.75 5.10817 15.4667 5.10817 15.125V13.4C5.10817 13.0583 5.3915 12.775 5.73317 12.775C6.07484 12.775 6.35817 13.0583 6.35817 13.4V15.125ZM10.6248 15.125C10.6248 15.4667 10.3415 15.75 9.99984 15.75C9.65817 15.75 9.37484 15.4667 9.37484 15.125V11.6667C9.37484 11.325 9.65817 11.0417 9.99984 11.0417C10.3415 11.0417 10.6248 11.325 10.6248 11.6667V15.125ZM14.8915 15.125C14.8915 15.4667 14.6082 15.75 14.2665 15.75C13.9248 15.75 13.6415 15.4667 13.6415 15.125V9.94167C13.6415 9.60001 13.9248 9.31667 14.2665 9.31667C14.6082 9.31667 14.8915 9.60001 14.8915 9.94167V15.125ZM14.8915 7.30834C14.8915 7.65001 14.6082 7.93334 14.2665 7.93334C13.9248 7.93334 13.6415 7.65001 13.6415 7.30834V6.50001C11.5165 8.68334 8.85817 10.225 5.88317 10.9667C5.83317 10.9833 5.78317 10.9833 5.73317 10.9833C5.44984 10.9833 5.19984 10.7917 5.12484 10.5083C5.0415 10.175 5.2415 9.83334 5.58317 9.75001C8.3915 9.05001 10.8915 7.57501 12.8748 5.49167H11.8332C11.4915 5.49167 11.2082 5.20834 11.2082 4.86667C11.2082 4.52501 11.4915 4.24167 11.8332 4.24167H14.2748C14.3082 4.24167 14.3332 4.25834 14.3665 4.25834C14.4082 4.26667 14.4498 4.26667 14.4915 4.28334C14.5332 4.30001 14.5665 4.32501 14.6082 4.35001C14.6332 4.36667 14.6582 4.37501 14.6832 4.39167C14.6915 4.40001 14.6915 4.40834 14.6998 4.40834C14.7332 4.44167 14.7582 4.47501 14.7832 4.50834C14.8082 4.54167 14.8332 4.56667 14.8415 4.60001C14.8582 4.63334 14.8582 4.66667 14.8665 4.70834C14.8748 4.75001 14.8915 4.79167 14.8915 4.84167C14.8915 4.85001 14.8998 4.85834 14.8998 4.86667V7.30834H14.8915Z" fill="#263BD4"/>
</svg>
