<svg width="31" height="31" viewBox="0 0 31 31" fill="none" xmlns="http://www.w3.org/2000/svg">
<path d="M18.2024 7H11.796C11.3725 7 10.9664 7.16823 10.6669 7.46769C10.3675 7.76715 10.1992 8.1733 10.1992 8.5968V21.4024C10.1992 22.2848 10.9144 23 11.796 23H18.2016C18.6252 23 19.0314 22.8318 19.331 22.5324C19.6306 22.2329 19.799 21.8268 19.7992 21.4032V8.5968C19.7992 8.1733 19.631 7.76715 19.3315 7.46769C19.0321 7.16823 18.6259 7 18.2024 7ZM14.9992 22.2C14.4472 22.2 13.9992 21.8424 13.9992 21.4C13.9992 20.9576 14.4472 20.6 14.9992 20.6C15.5512 20.6 15.9992 20.9576 15.9992 21.4C15.9992 21.8424 15.5512 22.2 14.9992 22.2ZM18.1992 19.8H11.7992V8.6H18.1992V19.8Z" fill="#263BD4"/>
<rect opacity="0.1" x="0.308594" y="0.310059" width="30" height="30" rx="2.48" fill="#263BD4"/>
</svg>
