<svg width="41" height="61" viewBox="0 0 61 61" fill="none" xmlns="http://www.w3.org/2000/svg">
<path d="M18.5 35.25C16.855 35.25 15.3325 35.8275 14.125 36.79C12.515 38.0675 11.5 40.045 11.5 42.25C11.5 43.5625 11.8675 44.805 12.515 45.855C13.7225 47.885 15.945 49.25 18.5 49.25C20.2675 49.25 21.8775 48.6025 23.1025 47.5C23.645 47.045 24.1175 46.485 24.485 45.855C25.1325 44.805 25.5 43.5625 25.5 42.25C25.5 38.3825 22.3675 35.25 18.5 35.25ZM22.1225 41.4975L18.395 44.945C18.15 45.1725 17.8175 45.295 17.5025 45.295C17.17 45.295 16.8375 45.1725 16.575 44.91L14.8425 43.1775C14.335 42.67 14.335 41.83 14.8425 41.3225C15.35 40.815 16.19 40.815 16.6975 41.3225L17.5375 42.1625L20.3375 39.5725C20.8625 39.0825 21.7025 39.1175 22.1925 39.6425C22.6825 40.1675 22.6475 41.0075 22.1225 41.4975Z" fill="#2335C2"/>
<path d="M35.7375 15.9125V22.5625H33.1125V15.9125C33.1125 15.44 32.6925 15.2125 32.4125 15.2125C32.325 15.2125 32.2375 15.23 32.15 15.265L18.2725 20.4975C17.345 20.8475 16.75 21.7225 16.75 22.72V23.8925C15.1575 25.0825 14.125 26.99 14.125 29.1425V22.72C14.125 20.6375 15.4025 18.7825 17.345 18.0475L31.24 12.7975C31.625 12.6575 32.0275 12.5875 32.4125 12.5875C34.1625 12.5875 35.7375 14.005 35.7375 15.9125Z" fill="#2335C2"/>
<path d="M47.3747 34.375V36.125C47.3747 36.5975 47.0072 36.9825 46.5172 37H43.9622C43.0347 37 42.1947 36.3175 42.1247 35.4075C42.0722 34.865 42.2822 34.3575 42.6322 34.0075C42.9472 33.675 43.3847 33.5 43.8572 33.5H46.4997C47.0072 33.5175 47.3747 33.9025 47.3747 34.375Z" fill="#2335C2"/>
<path d="M43.84 31.6625H45.625C46.5875 31.6625 47.375 30.875 47.375 29.9125V29.1425C47.375 25.52 44.4175 22.5625 40.795 22.5625H20.705C19.2175 22.5625 17.8525 23.0525 16.75 23.8925C15.1575 25.0825 14.125 26.99 14.125 29.1425V32.2575C14.125 32.9225 14.825 33.3425 15.455 33.1325C16.435 32.8 17.4675 32.625 18.5 32.625C23.8025 32.625 28.125 36.9475 28.125 42.25C28.125 43.51 27.7925 44.8925 27.2675 46.1175C26.9875 46.7475 27.425 47.5 28.1075 47.5H40.795C44.4175 47.5 47.375 44.5425 47.375 40.92V40.5875C47.375 39.625 46.5875 38.8375 45.625 38.8375H44.1025C42.4225 38.8375 40.8125 37.805 40.375 36.1775C40.025 34.8475 40.445 33.5525 41.32 32.7125C41.9675 32.0475 42.86 31.6625 43.84 31.6625ZM34.25 31.3125H25.5C24.7825 31.3125 24.1875 30.7175 24.1875 30C24.1875 29.2825 24.7825 28.6875 25.5 28.6875H34.25C34.9675 28.6875 35.5625 29.2825 35.5625 30C35.5625 30.7175 34.9675 31.3125 34.25 31.3125Z" fill="#2335C2"/>
<rect opacity="0.1" x="0.599854" y="0.600006" width="60" height="60" rx="4.8" fill="#263BD4"/>
</svg>
