<svg width="41" height="61" viewBox="0 0 61 61" fill="none" xmlns="http://www.w3.org/2000/svg">
<rect x="0.599854" y="0.600006" width="60" height="60" rx="4.8" fill="#FFF6EE"/>
<path d="M38.0825 12.5H23.4175C17.0475 12.5 13.25 16.2975 13.25 22.6675V37.315C13.25 43.7025 17.0475 47.5 23.4175 47.5H38.065C44.435 47.5 48.2325 43.7025 48.2325 37.3325V22.6675C48.25 16.2975 44.4525 12.5 38.0825 12.5ZM23.1025 40.7625C23.1025 41.48 22.5075 42.075 21.79 42.075C21.0725 42.075 20.4775 41.48 20.4775 40.7625V37.14C20.4775 36.4225 21.0725 35.8275 21.79 35.8275C22.5075 35.8275 23.1025 36.4225 23.1025 37.14V40.7625ZM32.0625 40.7625C32.0625 41.48 31.4675 42.075 30.75 42.075C30.0325 42.075 29.4375 41.48 29.4375 40.7625V33.5C29.4375 32.7825 30.0325 32.1875 30.75 32.1875C31.4675 32.1875 32.0625 32.7825 32.0625 33.5V40.7625ZM41.0225 40.7625C41.0225 41.48 40.4275 42.075 39.71 42.075C38.9925 42.075 38.3975 41.48 38.3975 40.7625V29.8775C38.3975 29.16 38.9925 28.565 39.71 28.565C40.4275 28.565 41.0225 29.16 41.0225 29.8775V40.7625ZM41.0225 24.3475C41.0225 25.065 40.4275 25.66 39.71 25.66C38.9925 25.66 38.3975 25.065 38.3975 24.3475V22.65C33.935 27.235 28.3525 30.4725 22.105 32.03C22 32.065 21.895 32.065 21.79 32.065C21.195 32.065 20.67 31.6625 20.5125 31.0675C20.3375 30.3675 20.7575 29.65 21.475 29.475C27.3725 28.005 32.6225 24.9075 36.7875 20.5325H34.6C33.8825 20.5325 33.2875 19.9375 33.2875 19.22C33.2875 18.5025 33.8825 17.9075 34.6 17.9075H39.7275C39.7975 17.9075 39.85 17.9425 39.92 17.9425C40.0075 17.96 40.095 17.96 40.1825 17.995C40.27 18.03 40.34 18.0825 40.4275 18.135C40.48 18.17 40.5325 18.1875 40.585 18.2225C40.6025 18.24 40.6025 18.2575 40.62 18.2575C40.69 18.3275 40.7425 18.3975 40.795 18.4675C40.8475 18.5375 40.9 18.59 40.9175 18.66C40.9525 18.73 40.9525 18.8 40.97 18.8875C40.9875 18.975 41.0225 19.0625 41.0225 19.1675C41.0225 19.185 41.04 19.2025 41.04 19.22V24.3475H41.0225Z" fill="#FFA051"/>
</svg>
