<svg width="15" height="15" viewBox="0 0 20 20" fill="none" xmlns="http://www.w3.org/2000/svg">
<path d="M18.3333 12.5C18.3333 15.725 15.725 18.3333 12.5 18.3333L13.375 16.875" stroke="#8B909A" stroke-width="1.5" stroke-linecap="round" stroke-linejoin="round"/>
<path d="M1.66675 7.50001C1.66675 4.27501 4.27508 1.66667 7.50008 1.66667L6.62508 3.12501" stroke="#8B909A" stroke-width="1.5" stroke-linecap="round" stroke-linejoin="round"/>
<path d="M18.3333 3.50001V3.59167C18.3333 3.82501 18.15 4.00834 17.9167 4.00834H10.4167C10.1833 4.00834 10 3.82501 10 3.59167V3.50001C10 2.03334 10.3667 1.66667 11.85 1.66667H16.4833C17.9667 1.66667 18.3333 2.03334 18.3333 3.50001Z" fill="#8B909A"/>
<path d="M10.4167 4.84166C10.1833 4.84166 10 5.02499 10 5.25833V6.09166V6.91666C10 8.38333 10.3667 8.74999 11.85 8.74999H16.4833C17.9667 8.74999 18.3333 8.38333 18.3333 6.91666V6.09166V5.25833C18.3333 5.02499 18.15 4.84166 17.9167 4.84166H10.4167Z" fill="#8B909A"/>
<path d="M10.0001 13.0833V13.175C10.0001 13.4083 9.81675 13.5917 9.58341 13.5917H2.08341C1.85008 13.5917 1.66675 13.4083 1.66675 13.175V13.0833C1.66675 11.6167 2.03341 11.25 3.51675 11.25H8.15008C9.63341 11.25 10.0001 11.6167 10.0001 13.0833Z" fill="#8B909A"/>
<path d="M2.08341 14.425C1.85008 14.425 1.66675 14.6083 1.66675 14.8417V15.675V16.5C1.66675 17.9667 2.03341 18.3333 3.51675 18.3333H8.15008C9.63341 18.3333 10.0001 17.9667 10.0001 16.5V15.675V14.8417C10.0001 14.6083 9.81675 14.425 9.58341 14.425H2.08341Z" fill="#8B909A"/>
</svg>
