<svg width="31" height="31" viewBox="0 0 31 31" fill="none" xmlns="http://www.w3.org/2000/svg">
<path fill-rule="evenodd" clip-rule="evenodd" d="M7.375 9.375C7.375 8.71196 7.63839 8.07607 8.10723 7.60723C8.57607 7.13839 9.21196 6.875 9.875 6.875H21.125C21.788 6.875 22.4239 7.13839 22.8928 7.60723C23.3616 8.07607 23.625 8.71196 23.625 9.375V17.5C23.625 18.163 23.3616 18.7989 22.8928 19.2678C22.4239 19.7366 21.788 20 21.125 20H18.625V20.2142C18.625 20.7117 18.8225 21.1892 19.1742 21.54L19.6917 22.0583C19.779 22.1457 19.8384 22.2571 19.8625 22.3782C19.8865 22.4994 19.8742 22.625 19.8269 22.7391C19.7796 22.8532 19.6996 22.9508 19.5969 23.0195C19.4943 23.0882 19.3735 23.1249 19.25 23.125H11.75C11.6265 23.1249 11.5057 23.0882 11.4031 23.0195C11.3004 22.9508 11.2204 22.8532 11.1731 22.7391C11.1258 22.625 11.1135 22.4994 11.1375 22.3782C11.1616 22.2571 11.221 22.1457 11.3083 22.0583L11.8258 21.54C12.1773 21.1886 12.3748 20.712 12.375 20.215V20H9.875C9.21196 20 8.57607 19.7366 8.10723 19.2678C7.63839 18.7989 7.375 18.163 7.375 17.5V9.375ZM8.625 9.375V15.625C8.625 15.9565 8.7567 16.2745 8.99112 16.5089C9.22554 16.7433 9.54348 16.875 9.875 16.875H21.125C21.4565 16.875 21.7745 16.7433 22.0089 16.5089C22.2433 16.2745 22.375 15.9565 22.375 15.625V9.375C22.375 9.04348 22.2433 8.72554 22.0089 8.49112C21.7745 8.2567 21.4565 8.125 21.125 8.125H9.875C9.54348 8.125 9.22554 8.2567 8.99112 8.49112C8.7567 8.72554 8.625 9.04348 8.625 9.375Z" fill="#263BD4"/>
<rect opacity="0.1" x="0.308594" y="0.310059" width="30" height="30" rx="2.48" fill="#263BD4"/>
</svg>
